<?xml version="1.0" standalone="no"?>
<!DOCTYPE svg PUBLIC "-//W3C//DTD SVG 1.1//EN" "http://www.w3.org/Graphics/SVG/1.1/DTD/svg11.dtd" >
<svg xmlns="http://www.w3.org/2000/svg">
<metadata>Generated by IcoMoon</metadata>
<defs>
<font id="icomoon" horiz-adv-x="1024">
<font-face units-per-em="1024" ascent="960" descent="-64" />
<missing-glyph horiz-adv-x="1024" />
<glyph unicode="&#x20;" horiz-adv-x="512" d="" />
<glyph unicode="&#xe600;" glyph-name="location" horiz-adv-x="640" d="M320 960c-177 0-320-143-320-320s160-416 320-704c160 288 320 527 320 704s-143 320-320 320zM320 512c-71 0-128 57-128 128s57 128 128 128 128-57 128-128-57-128-128-128z" />
<glyph unicode="&#xe601;" glyph-name="youtube" d="M731.429 438.857q0 21.143-17.143 30.857l-292.571 182.857q-17.714 11.429-37.143 1.143-18.857-10.286-18.857-32v-365.714q0-21.714 18.857-32 9.143-4.571 17.714-4.571 11.429 0 19.429 5.714l292.571 182.857q17.143 9.714 17.143 30.857zM1024 438.857q0-54.857-0.571-85.714t-4.857-78-12.857-84.286q-9.143-41.714-39.429-70.286t-70.857-33.143q-126.857-14.286-383.429-14.286t-383.429 14.286q-40.571 4.571-71.143 33.143t-39.714 70.286q-8 37.143-12.286 84.286t-4.857 78-0.571 85.714 0.571 85.714 4.857 78 12.857 84.286q9.143 41.714 39.429 70.286t70.857 33.143q126.857 14.286 383.429 14.286t383.429-14.286q40.571-4.571 71.143-33.143t39.714-70.286q8-37.143 12.286-84.286t4.857-78 0.571-85.714z" />
<glyph unicode="&#xe602;" glyph-name="menu" d="M128 170.667h768v85.333h-768v-85.333zM128 384h768v85.333h-768v-85.333zM128 682.667v-85.333h768v85.333h-768z" />
<glyph unicode="&#xe603;" glyph-name="social-facebook" d="M554.667 512h128v-128h-128v-298.667h-128v298.667h-128v128h128v53.547c0 50.731 15.957 114.816 47.701 149.845 31.744 35.115 71.381 52.608 118.869 52.608h89.429v-128h-89.6c-21.248 0-38.4-17.152-38.4-38.357v-89.643z" />
<glyph unicode="&#xe604;" glyph-name="social-twitter" d="M805.973 639.488c34.475 21.163 57.301 50.048 68.48 86.784-33.536-17.792-66.944-29.995-100.309-36.736-29.995 32.256-67.968 48.64-113.493 48.64-44.501 0-82.091-15.616-112.768-45.995-30.507-30.592-45.909-67.755-45.909-111.147 0-13.184 1.664-24.96 4.992-34.944-131.243 4.48-239.872 58.923-325.461 163.712-14.507-25.643-21.76-51.755-21.76-78.763 0-55.509 23.424-99.499 70.187-131.797-26.667 2.261-50.176 9.003-70.187 20.053 0-39.637 11.648-72.747 34.987-101.888 23.424-28.843 53.504-47.232 90.24-55.083-13.312-3.413-27.349-5.035-41.771-5.035-13.312 0-22.741 1.109-28.331 3.541 9.813-32.299 28.331-58.496 55.083-78.549 26.667-20.139 57.344-30.763 91.819-31.701-56.832-44.587-121.813-66.645-195.328-66.645-18.005 0-30.763 0.256-38.485 1.621 72.405-47.019 153.003-70.357 242.176-70.357 91.264 0 171.904 23.125 242.091 69.376 70.187 45.995 121.984 102.741 155.264 169.557 33.451 66.731 50.005 136.192 50.005 208.725v19.968c32.341 24.32 58.496 51.712 78.507 81.963-29.013-12.501-59.008-20.992-90.027-25.301z" />
<glyph unicode="&#xe605;" glyph-name="close" d="M810.667 768q18.333 0 30.5-12.167t12.167-30.5q0-18-12.333-30.333l-268.667-268.333 268.667-268.333q12.333-12.333 12.333-30.333 0-18.333-12.167-30.5t-30.5-12.167q-18 0-30.333 12.333l-268.333 268.667-268.333-268.667q-12.333-12.333-30.333-12.333-18.333 0-30.5 12.167t-12.167 30.5q0 18 12.333 30.333l268.667 268.333-268.667 268.333q-12.333 12.333-12.333 30.333 0 18.333 12.167 30.5t30.5 12.167q18 0 30.333-12.333l268.333-268.667 268.333 268.667q12.333 12.333 30.333 12.333z" />
<glyph unicode="&#xe606;" glyph-name="arrow-right" d="M389.171 285.798c-13.722-13.875-13.722-36.301 0-50.125 13.67-13.875 35.891-13.875 49.613 0l196.096 200.038c13.722 13.875 13.722 36.301 0 50.125l-196.096 200.090c-13.722 13.875-35.891 13.875-49.613 0s-13.722-36.25-0.051-50.074l160.819-175.053-160.768-175.002z" />
<glyph unicode="&#xe607;" glyph-name="arrow-left" d="M634.829 285.798c13.722-13.875 13.722-36.301 0-50.125-13.722-13.875-35.891-13.875-49.613 0l-196.096 200.038c-13.722 13.875-13.722 36.301 0 50.125l196.096 200.090c13.722 13.875 35.891 13.875 49.613 0s13.722-36.25 0-50.125l-160.768-175.002 160.768-175.002z" />
<glyph unicode="&#xe608;" glyph-name="arrow-down" d="M687.002 583.629c13.875 13.722 36.301 13.722 50.125 0 13.875-13.722 13.875-35.891 0-49.613l-200.038-196.096c-13.875-13.722-36.301-13.722-50.125 0l-200.090 196.096c-13.824 13.722-13.824 35.891 0 49.613 13.875 13.722 36.25 13.722 50.125 0l175.002-160.768 175.002 160.768z" />
<glyph unicode="&#xe609;" glyph-name="arrow-up" d="M336.947 337.971c-13.875-13.722-36.25-13.722-50.125 0-13.824 13.722-13.875 35.891 0 49.664l200.090 195.994c13.875 13.722 36.301 13.722 50.125 0l200.090-196.045c13.875-13.773 13.875-35.942 0-49.664s-36.25-13.722-50.125 0l-175.053 160.819-175.002-160.768z" />
<glyph unicode="&#xe60a;" glyph-name="phone" horiz-adv-x="805" d="M804.571 242.286q0-15.429-5.714-40.286t-12-39.143q-12-28.571-69.714-60.571-53.714-29.143-106.286-29.143-15.429 0-30 2t-32.857 7.143-27.143 8.286-31.714 11.714-28 10.286q-56 20-100 47.429-73.143 45.143-151.143 123.143t-123.143 151.143q-27.429 44-47.429 100-1.714 5.143-10.286 28t-11.714 31.714-8.286 27.143-7.143 32.857-2 30q0 52.571 29.143 106.286 32 57.714 60.571 69.714 14.286 6.286 39.143 12t40.286 5.714q8 0 12-1.714 10.286-3.429 30.286-43.429 6.286-10.857 17.143-30.857t20-36.286 17.714-30.571q1.714-2.286 10-14.286t12.286-20.286 4-16.286q0-11.429-16.286-28.571t-35.429-31.429-35.429-30.286-16.286-26.286q0-5.143 2.857-12.857t4.857-11.714 8-13.714 6.571-10.857q43.429-78.286 99.429-134.286t134.286-99.429q1.143-0.571 10.857-6.571t13.714-8 11.714-4.857 12.857-2.857q10.286 0 26.286 16.286t30.286 35.429 31.429 35.429 28.571 16.286q8 0 16.286-4t20.286-12.286 14.286-10q14.286-8.571 30.571-17.714t36.286-20 30.857-17.143q40-20 43.429-30.286 1.714-4 1.714-12z" />
<glyph unicode="&#xe60e;" glyph-name="staff" horiz-adv-x="1126" d="M768 611.84c0-84.831-68.769-153.6-153.6-153.6s-153.6 68.769-153.6 153.6c0 84.831 68.769 153.6 153.6 153.6s153.6-68.769 153.6-153.6zM337.92 765.44c0-79.176-64.184-143.36-143.36-143.36s-143.36 64.184-143.36 143.36c0 79.176 64.184 143.36 143.36 143.36s143.36-64.184 143.36-143.36zM1075.2 181.76c0-113.108-91.692-204.8-204.8-204.8s-204.8 91.692-204.8 204.8c0 113.108 91.692 204.8 204.8 204.8s204.8-91.692 204.8-204.8z" />
<glyph unicode="&#xe612;" glyph-name="search" d="M1000.64 70.848l-184.896 184.896c50.688 72.576 80.64 160.704 80.64 255.936 0 247.424-200.64 448-448 448s-448-200.576-448-448c0-247.424 200.576-448 448-448 95.232 0 183.424 29.952 256 80.64l184.896-184.896c30.72-30.72 80.64-30.72 111.36 0s30.72 80.576 0 111.424zM448.32 191.616c-176.704 0-320 143.232-320 320s143.296 320 320 320c176.768 0 320-143.232 320-320 0.064-176.768-143.168-320-320-320z" />
<glyph unicode="&#xe61d;" glyph-name="envelope" d="M0 149.334c0-47.146 38.186-85.334 85.334-85.334h853.334c47.146 0 85.334 38.186 85.334 85.334l-0.002 576c0 47.146-38.186 85.334-85.334 85.334l-853.332-0.002c-47.146 0-85.334-38.186-85.334-85.334v-575.998zM314.026 436.694l-195.2 196.48c-16.192 16.214-16.192 42.454 0 58.666 16.234 16.214 42.474 16.214 58.666 0l311.468-311.872c12.586-12.374 33.302-12.374 45.674 0l311.872 311.872c16.214 16.214 42.454 16.214 58.666 0 16.214-16.214 16.214-42.454 0-58.666l-195.414-196.48 195.414-195.178c16.214-16.214 16.214-42.454 0-58.666s-42.454-16.214-58.666 0l-195.2 194.986c0 0-60.992-62.080-72.086-73.174-17.3-16.876-41.194-27.328-67.22-27.328-26.454 0-50.346 10.666-67.626 27.968-11.306 11.094-71.894 72.512-71.894 72.512l-195.008-194.986c-16.192-16.214-42.432-16.214-58.666 0-16.192 16.214-16.192 42.454 0 58.666l195.22 195.2z" />
<glyph unicode="&#xe900;" glyph-name="archivo" horiz-adv-x="1497" d="M1490.944 877.056c-5.12 5.12-11.264 9.216-18.432 9.216h-737.28c-7.168 0-13.312-3.072-18.432-8.192l-97.28-107.52h-368.64c-11.264 0-20.48-7.168-23.552-18.432l-177.152-615.424v773.12h359.424l128-109.568c10.24-9.216 26.624-8.192 34.816 3.072 9.216 10.24 8.192 26.624-3.072 34.816l-134.144 115.712c-4.096 4.096-10.24 6.144-16.384 6.144h-394.24c-13.312 0-24.576-11.264-24.576-24.576v-973.824c0-2.048 0-4.096 1.024-6.144 1.024-4.096 2.048-7.168 4.096-10.24s5.12-5.12 8.192-7.168c2.048-1.024 5.12-2.048 8.192-3.072 1.024 0 2.048 0 3.072 0 0 0 0 0 1.024 0h1302.528c12.288 0 22.528 9.216 24.576 20.48l144.384 899.072c0 9.216-2.048 16.384-6.144 22.528zM1306.624-13.824h-1248.256l211.968 734.208h361.472c7.168 0 13.312 3.072 18.432 8.192l97.28 107.52h696.32l-137.216-849.92z" />
<glyph unicode="&#xe901;" glyph-name="brochure" horiz-adv-x="947" d="M151.552 505.344h454.656v-37.888h-454.656v37.888zM559.104 390.656h-407.552v-37.888h369.664zM445.44 276.992h-293.888v-37.888h254.976zM151.552 163.328h189.44v-37.888h-189.44v37.888zM936.96 554.496l-53.248 53.248c-14.336 14.336-38.912 14.336-53.248 0-138.24-136.192-275.456-273.408-413.696-411.648 0-65.536 0-51.2 0-108.544 91.136 0 68.608 0 106.496 0 19.456 19.456 107.52 107.52 196.608 196.608v-273.408c0-20.48-17.408-37.888-37.888-37.888h-606.208c-20.48 0-37.888 17.408-37.888 37.888v684.032c0 20.48 17.408 37.888 37.888 37.888h75.776v-75.776h454.656v75.776h75.776c20.48 0 37.888-17.408 37.888-37.888v-141.312l37.888 37.888v102.4c0 41.984-33.792 75.776-75.776 75.776h-81.92c-12.288 34.816-39.936 61.44-75.776 71.68-17.408 5.12-30.72 18.432-35.84 35.84-13.312 48.128-57.344 82.944-109.568 82.944-51.2 0-95.232-34.816-108.544-81.92-5.12-17.408-18.432-30.72-35.84-35.84-34.816-10.24-63.488-36.864-75.776-71.68h-81.92c-41.984 0-75.776-33.792-75.776-75.776v-683.008c0-41.984 33.792-75.776 75.776-75.776h607.232c41.984 0 75.776 33.792 75.776 75.776v311.296c81.92 81.92 157.696 157.696 178.176 178.176 13.312 14.336 13.312 37.888-1.024 53.248zM189.44 732.672c0 33.792 22.528 63.488 55.296 72.704 29.696 8.192 53.248 31.744 61.44 61.44 9.216 32.768 38.912 55.296 72.704 55.296s63.488-22.528 72.704-55.296c8.192-29.696 31.744-53.248 61.44-61.44 32.768-9.216 55.296-38.912 55.296-72.704v-37.888h-378.88v37.888zM507.904 125.44c-10.24 0-14.336 0-27.648 0l-25.6 25.6v29.696c9.216 9.216 16.384 16.384 25.6 25.6l53.248-53.248-25.6-27.648zM561.152 178.688l-53.248 54.272 241.664 241.664 53.248-53.248-241.664-242.688zM829.44 446.976l-53.248 53.248 26.624 26.624 53.248-53.248-26.624-26.624zM882.688 501.248l-53.248 53.248 26.624 26.624 53.248-53.248-26.624-26.624zM408.576 846.336c0-15.835-12.837-28.672-28.672-28.672s-28.672 12.837-28.672 28.672c0 15.835 12.837 28.672 28.672 28.672s28.672-12.837 28.672-28.672z" />
<glyph unicode="&#xe902;" glyph-name="buscador" horiz-adv-x="986" d="M406.528 147.968c-224.256 0-406.528 182.272-406.528 405.504s182.272 406.528 406.528 406.528 406.528-182.272 406.528-406.528-183.296-405.504-406.528-405.504zM406.528 934.4c-209.92 0-380.928-171.008-380.928-380.928s171.008-379.904 379.904-379.904c209.92 0 379.904 171.008 379.904 379.904 1.024 209.92-169.984 380.928-378.88 380.928zM661.858 253.961l18.452 17.743 305.896-318.121-18.452-17.743-305.896 318.121z" />
<glyph unicode="&#xe903;" glyph-name="buscador-header" d="M1004.544 46.592l-207.872 207.872c56.32 75.776 87.040 167.936 87.040 263.168 0 243.712-197.632 442.368-441.344 442.368s-442.368-198.656-442.368-442.368c0-243.712 198.656-441.344 442.368-441.344 95.232 0 187.392 30.72 263.168 87.040l207.872-207.872c12.288-12.288 28.672-19.456 46.080-19.456s34.816 7.168 46.080 19.456c24.576 24.576 24.576 66.56-1.024 91.136zM441.344 206.336c-172.032 0-312.32 140.288-312.32 312.32s140.288 312.32 312.32 312.32c172.032 0 312.32-140.288 312.32-312.32 0-173.056-140.288-312.32-312.32-312.32z" />
<glyph unicode="&#xe904;" glyph-name="catalogo-ficha" horiz-adv-x="896" d="M778.24 370.176c-13.312 13.312-44.032 20.48-90.112 21.504-30.72 0-68.608-2.048-108.544-8.192-17.408 10.24-35.84 21.504-50.176 34.816-38.912 35.84-70.656 86.016-90.112 140.288 1.024 5.12 2.048 9.216 3.072 14.336 0 0 21.504 122.88 16.384 164.864-1.024 6.144-1.024 7.168-3.072 12.288l-2.048 5.12c-6.144 13.312-17.408 27.648-35.84 27.648h-10.24c-20.48 0-36.864-10.24-40.96-25.6-13.312-48.128 0-120.832 24.576-215.040l-6.144-15.36c-17.408-43.008-39.936-86.016-59.392-123.904l-2.048-6.144c-20.48-39.936-38.912-73.728-56.32-102.4l-17.408-9.216c-1.024-1.024-30.72-16.384-37.888-20.48-59.392-35.84-98.304-75.776-105.472-107.52-2.048-10.24-1.024-23.552 10.24-29.696l16.384-8.192c7.168-4.096 15.36-5.12 22.528-5.12 41.984 0 91.136 52.224 158.72 169.984 77.824 25.6 166.912 46.080 244.736 58.368 59.392-33.792 132.096-56.32 178.176-56.32 8.192 0 15.36 1.024 20.48 2.048 9.216 2.048 16.384 7.168 20.48 14.336 9.216 13.312 10.24 31.744 8.192 51.2 1.024 5.12-3.072 12.288-8.192 16.384zM147.456 145.92c8.192 21.504 37.888 62.464 82.944 99.328 3.072 2.048 10.24 9.216 16.384 15.36-47.104-75.776-78.848-105.472-99.328-114.688zM414.72 760.32c13.312 0 21.504-33.792 21.504-66.56 1.024-31.744-7.168-54.272-16.384-71.68-8.192 24.576-11.264 63.488-11.264 89.088 0 1.024 0 49.152 6.144 49.152zM334.848 322.048c9.216 17.408 19.456 34.816 29.696 53.248 24.576 46.080 39.936 82.944 51.2 112.64 22.528-41.984 51.2-76.8 84.992-105.472 4.096-3.072 8.192-7.168 13.312-10.24-68.608-13.312-126.976-29.696-179.2-50.176zM764.928 326.144c-4.096-3.072-16.384-4.096-23.552-4.096-24.576 0-55.296 11.264-98.304 29.696 16.384 1.024 31.744 2.048 45.056 2.048 24.576 0 31.744 0 56.32-6.144s24.576-18.432 20.48-21.504zM839.68 760.32l-143.36 143.36c-30.72 30.72-92.16 56.32-136.192 56.32h-480.256c-44.032 0-79.872-35.84-79.872-79.872v-864.256c0-44.032 35.84-79.872 79.872-79.872h736.256c44.032 0 79.872 35.84 79.872 79.872v608.256c0 44.032-25.6 105.472-56.32 136.192zM794.624 715.264c3.072-3.072 6.144-7.168 9.216-11.264h-163.84v163.84c4.096-3.072 8.192-6.144 11.264-9.216l143.36-143.36zM832.512 15.872c0-8.192-7.168-16.384-16.384-16.384h-736.256c-8.192 0-16.384 7.168-16.384 16.384v864.256c1.024 8.192 8.192 15.36 16.384 15.36h480.256c5.12 0 10.24-1.024 16.384-2.048v-253.952h253.952c1.024-6.144 2.048-11.264 2.048-16.384v-607.232z" />
<glyph unicode="&#xe905;" glyph-name="cerrar" horiz-adv-x="1038" d="M439.296 460.288l-421.888 499.712h110.592c11.264 0 19.456-2.048 24.576-6.144s10.24-9.216 14.336-14.336l356.352-434.176c3.072 11.264 10.24 23.552 20.48 36.864l333.824 396.288c4.096 6.144 9.216 11.264 15.36 15.36s13.312 6.144 20.48 6.144h107.52l-423.936-494.592 441.344-529.408h-110.592c-11.264 0-20.48 3.072-26.624 9.216s-12.288 11.264-16.384 17.408l-368.64 452.608c-4.096-13.312-10.24-25.6-18.432-34.816l-354.304-419.84c-6.144-6.144-11.264-11.264-17.408-16.384s-13.312-7.168-22.528-7.168h-103.424l439.296 523.264z" />
<glyph unicode="&#xe906;" glyph-name="arriba" horiz-adv-x="700" d="M387.072 944.64c-20.48 20.48-54.272 20.48-74.752 0l-296.96-296.96c-20.48-20.48-20.48-54.272 0-74.752s54.272-20.48 74.752 0l206.848 206.848v-790.528c0-29.696 23.552-53.248 53.248-53.248s53.248 23.552 53.248 53.248v790.528l206.848-206.848c20.48-20.48 54.272-20.48 74.752 0 10.24 10.24 15.36 23.552 15.36 37.888 0 13.312-5.12 27.648-15.36 37.888l-297.984 295.936z" />
<glyph unicode="&#xe907;" glyph-name="prev" horiz-adv-x="1497" d="M22.456 501.895c-29.942-29.942-29.942-79.345 0-109.287l434.152-434.152c29.942-29.942 79.345-29.942 109.287 0s29.942 79.345 0 109.287l-302.409 302.409h1155.743c43.415 0 77.848 34.433 77.848 77.848s-34.433 77.848-77.848 77.848h-1155.743l302.409 302.409c29.942 29.942 29.942 79.345 0 109.287-14.971 14.971-34.433 22.456-55.392 22.456-19.462 0-40.421-7.485-55.392-22.456l-432.655-435.649z" />
<glyph unicode="&#xe908;" glyph-name="arrow-banner" horiz-adv-x="554" d="M12.288 7.68c-16.384-16.384-16.384-43.008 0-59.392 8.192-8.192 19.456-12.288 29.696-12.288s21.504 4.096 29.696 12.288l470.016 470.016c16.384 16.384 16.384 43.008 0 59.392l-470.016 470.016c-16.384 16.384-43.008 16.384-59.392 0s-16.384-43.008 0-59.392l440.32-440.32-440.32-440.32z" />
<glyph unicode="&#xe909;" glyph-name="direccion" d="M512 960l-512-512 512-512 512 512-512 512zM47.104 448l464.896 464.896 464.896-464.896-464.896-464.896-464.896 464.896zM707.584 371.2l-145.408 144.384c-6.144 6.144-17.408 6.144-23.552 0s-6.144-17.408 0-23.552l100.352-100.352h-227.328v245.76c0 12.288-10.24 22.528-22.528 22.528s-22.528-10.24-22.528-22.528v-267.264c0-12.288 10.24-22.528 22.528-22.528h267.264c0 0 1.024 0 1.024 0l-113.664-101.376c-7.168-6.144-7.168-16.384-1.024-23.552 3.072-4.096 8.192-5.12 12.288-5.12s8.192 1.024 11.264 4.096l140.288 124.928c3.072 3.072 5.12 7.168 5.12 12.288 1.024 4.096-1.024 9.216-4.096 12.288z" />
<glyph unicode="&#xe90a;" glyph-name="facebook" horiz-adv-x="554" d="M532.48 960h-133.12c-149.504 0-245.76-99.328-245.76-251.904v-116.736h-133.12c-11.264 0-20.48-9.216-20.48-20.48v-167.936c0-11.264 9.216-20.48 20.48-20.48h133.12v-425.984c0-11.264 9.216-20.48 20.48-20.48h174.080c11.264 0 20.48 9.216 20.48 20.48v424.96h155.648c11.264 0 20.48 9.216 20.48 20.48v167.936c0 5.12-2.048 11.264-6.144 14.336-1.024 5.12-6.144 7.168-12.288 7.168h-155.648v98.304c0 47.104 11.264 71.68 72.704 71.68h89.088c11.264 0 20.48 9.216 20.48 20.48v156.672c1.024 12.288-8.192 21.504-20.48 21.504z" />
<glyph unicode="&#xe90b;" glyph-name="flecha-abajo-formulario" horiz-adv-x="1860" d="M96.256 960l-96.256-96.256 929.792-927.744 929.792 927.744-96.256 96.256-833.536-831.488z" />
<glyph unicode="&#xe90c;" glyph-name="next" horiz-adv-x="1497" d="M1474.62 394.105c29.942 29.942 29.942 79.345 0 109.287l-434.152 434.152c-29.942 29.942-79.345 29.942-109.287 0s-29.942-79.345 0-109.287l302.409-302.409h-1155.743c-43.415 0-77.848-34.433-77.848-77.848s34.433-77.848 77.848-77.848h1155.743l-302.409-302.409c-29.942-29.942-29.942-79.345 0-109.287 14.971-14.971 34.433-22.456 55.392-22.456s40.421 7.485 55.392 22.456l432.655 435.649z" />
<glyph unicode="&#xe90d;" glyph-name="izquierda-banner-empresa" horiz-adv-x="554" d="M101.376 448l440.32 440.32c16.384 16.384 16.384 43.008 0 59.392s-43.008 16.384-59.392 0l-470.016-470.016c-16.384-16.384-16.384-43.008 0-59.392l470.016-470.016c8.192-8.192 19.456-12.288 29.696-12.288 11.264 0 21.504 4.096 29.696 12.288 16.384 16.384 16.384 43.008 0 59.392l-440.32 440.32z" />
<glyph unicode="&#xe90e;" glyph-name="linkedin" horiz-adv-x="1042" d="M125.952 960c68.608 0 125.952-57.344 125.952-125.952 0-71.68-61.44-128-125.952-125.952-66.56-1.024-125.952 54.272-125.952 125.952-2.048 70.656 55.296 125.952 125.952 125.952zM195.584-64h-143.36c-19.456 0-35.84 16.384-35.84 35.84v628.736c0 19.456 14.336 35.84 33.792 35.84h145.408c19.456 0 35.84-16.384 35.84-35.84v-630.784c0-17.408-15.36-33.792-35.84-33.792zM1040.384 417.28c0 133.12-98.304 237.568-231.424 237.568h-37.888c-71.68 0-142.336-33.792-179.2-90.112-12.288-12.288-18.432-18.432-18.432-18.432v71.68c0 7.168-11.264 18.432-18.432 18.432h-179.2c-7.168 0-18.432-7.168-18.432-16.384v-669.696c0-7.168 11.264-14.336 18.432-14.336h197.632c7.168 0 18.432 7.168 18.432 14.336v388.096c0 66.56 50.176 121.856 116.736 123.904 33.792 0 64.512-12.288 88.064-35.84 21.504-21.504 30.72-52.224 30.72-86.016v-386.048c0-7.168 11.264-18.432 18.432-18.432h178.176c7.168 0 18.432 11.264 18.432 18.432v462.848h-2.048z" />
<glyph unicode="&#xe90f;" glyph-name="lupa-proyectos" horiz-adv-x="987" d="M538.624 588.288h-96.256v96.256c0 19.456-16.384 35.84-35.84 35.84s-35.84-16.384-35.84-35.84v-96.256h-96.256c-19.456 0-35.84-16.384-35.84-35.84s16.384-35.84 35.84-35.84h96.256v-96.256c0-19.456 16.384-35.84 35.84-35.84s35.84 16.384 35.84 35.84v96.256h96.256c19.456 0 35.84 16.384 35.84 35.84 0 20.48-15.36 35.84-35.84 35.84zM702.464 273.92c71.68 75.776 111.616 174.080 111.616 279.552 0 224.256-182.272 406.528-406.528 406.528-225.28 0-407.552-182.272-407.552-407.552 0-224.256 182.272-407.552 407.552-407.552 91.136 0 179.2 30.72 250.88 87.040l285.696-296.96 43.008 41.984-284.672 296.96zM407.552 206.336c-191.488 0-347.136 155.648-347.136 347.136s155.648 347.136 347.136 347.136c191.488 0 347.136-155.648 347.136-347.136-1.024-191.488-156.672-347.136-347.136-347.136z" />
<glyph unicode="&#xe910;" glyph-name="manual-empresa" horiz-adv-x="795" d="M260.096 150.016c-2.048 3.072-6.144 6.144-10.24 8.192s-10.24 3.072-17.408 3.072h-21.504v-70.656h26.624c3.072 0 7.168 1.024 10.24 2.048s6.144 3.072 9.216 6.144c3.072 3.072 5.12 6.144 7.168 11.264s3.072 11.264 3.072 18.432c0 3.072 0 6.144-1.024 10.24-2.048 4.096-4.096 8.192-6.144 11.264zM428.032 142.848c-5.12 6.144-12.288 10.24-20.48 14.336s-19.456 5.12-33.792 5.12h-17.408v-134.144h28.672c19.456 0 33.792 6.144 41.984 18.432s13.312 30.72 13.312 54.272c0 7.168-1.024 14.336-3.072 21.504 0 8.192-4.096 14.336-9.216 20.48zM784.384 744.96l-204.8 204.8c-6.144 7.168-15.36 10.24-23.552 10.24h-512c-21.504 0-44.032-16.384-44.032-51.2v-936.96c0-14.336 15.36-29.696 32.768-33.792 1.024 0 2.048-1.024 3.072-1.024 0 0 0 0 0 0v-1.024h723.968v1.024c0 0 0 0 0 0 1.024 0 2.048 1.024 3.072 1.024 17.408 4.096 32.768 19.456 32.768 33.792v741.376c-1.024 13.312-3.072 23.552-11.264 31.744zM582.656 897.536l148.48-148.48h-148.48v148.48zM289.792 104.96c-3.072-7.168-7.168-13.312-13.312-18.432-5.12-5.12-12.288-9.216-19.456-11.264s-16.384-4.096-25.6-4.096h-21.504v-64.512h-28.672v178.176h51.2c7.168 0 15.36-1.024 22.528-4.096 7.168-2.048 14.336-6.144 19.456-11.264 6.144-5.12 10.24-10.24 14.336-17.408s5.12-14.336 5.12-23.552c0-8.192-1.024-16.384-4.096-23.552zM466.944 62.976c-3.072-10.24-7.168-19.456-12.288-25.6-5.12-7.168-10.24-12.288-16.384-16.384s-12.288-7.168-17.408-9.216c-5.12-2.048-11.264-3.072-15.36-4.096-5.12-1.024-8.192-1.024-10.24-1.024h-67.584v178.176h53.248c15.36 0 27.648-2.048 39.936-7.168 11.264-5.12 20.48-11.264 28.672-18.432 7.168-8.192 13.312-16.384 16.384-26.624 4.096-10.24 5.12-20.48 5.12-30.72 1.024-16.384-1.024-28.672-4.096-38.912zM624.64 162.304h-81.92v-56.32h74.752v-19.456h-74.752v-79.872h-29.696v178.176h111.616v-22.528zM758.784 271.872h-723.968v636.928c0 4.096 1.024 16.384 8.192 16.384h504.832c-1.024-2.048-1.024-4.096-1.024-7.168v-204.8h204.8c2.048 0 5.12 0 7.168 1.024 0 0 0 0 0-1.024v-441.344zM274.432 170.496c-6.144 5.12-12.288 8.192-19.456 11.264-7.168 2.048-15.36 4.096-22.528 4.096h-51.2v-178.176h28.672v64.512h21.504c9.216 0 17.408 1.024 25.6 4.096s14.336 6.144 19.456 11.264c5.12 5.12 10.24 11.264 13.312 18.432s4.096 15.36 4.096 24.576c0 8.192-2.048 16.384-5.12 23.552-4.096 5.12-8.192 11.264-14.336 16.384zM263.168 111.104c-2.048-5.12-4.096-9.216-7.168-11.264-3.072-3.072-6.144-5.12-9.216-6.144s-7.168-2.048-10.24-2.048h-26.624v70.656h21.504c7.168 0 13.312-1.024 17.408-3.072s8.192-5.12 10.24-8.192c2.048-3.072 4.096-7.168 5.12-11.264s1.024-7.168 1.024-10.24c1.024-7.168 0-13.312-2.048-18.432zM449.536 158.208c-7.168 8.192-17.408 14.336-28.672 18.432-11.264 5.12-24.576 7.168-39.936 7.168h-53.248v-178.176h67.584c2.048 0 6.144 0 10.24 1.024 5.12 1.024 10.24 2.048 15.36 4.096 6.144 2.048 11.264 5.12 17.408 9.216s11.264 9.216 16.384 16.384c5.12 7.168 9.216 15.36 12.288 25.6s5.12 22.528 5.12 37.888c0 10.24-2.048 20.48-5.12 30.72-4.096 11.264-10.24 20.48-17.408 27.648zM428.032 46.592c-8.192-12.288-22.528-18.432-41.984-18.432h-28.672v134.144h17.408c14.336 0 25.6-2.048 33.792-5.12 8.192-4.096 15.36-8.192 20.48-14.336s8.192-12.288 10.24-19.456c2.048-7.168 3.072-14.336 3.072-21.504-1.024-24.576-5.12-43.008-14.336-55.296zM514.048 6.656h28.672v79.872h74.752v20.48h-74.752v55.296h81.92v22.528h-110.592zM563.2 554.496c-16.384 0-35.84-2.048-59.392-6.144-32.768 33.792-65.536 83.968-90.112 133.12 23.552 99.328 12.288 113.664 6.144 119.808-5.12 7.168-13.312 18.432-22.528 18.432-4.096 0-14.336-2.048-18.432-3.072-10.24-3.072-15.36-11.264-20.48-21.504-12.288-29.696 5.12-78.848 22.528-117.76-12.288-58.368-37.888-130.048-64.512-188.416-66.56-30.72-102.4-60.416-105.472-89.088-1.024-10.24 1.024-25.6 19.456-39.936 5.12-4.096 11.264-6.144 17.408-6.144v0c15.36 0 30.72 12.288 49.152 36.864 13.312 18.432 27.648 44.032 41.984 74.752 47.104 20.48 105.472 38.912 155.648 50.176 27.648-26.624 53.248-39.936 74.752-39.936 15.36 0 29.696 7.168 38.912 21.504 10.24 14.336 12.288 27.648 7.168 37.888-7.168 13.312-24.576 19.456-52.224 19.456zM247.808 383.488c-8.192 6.144-8.192 10.24-7.168 12.288 1.024 10.24 16.384 27.648 54.272 48.128-28.672-52.224-44.032-59.392-47.104-60.416zM392.192 788.992c1.024 0 18.432-19.456 2.048-56.32-25.6 24.576-3.072 55.296-2.048 56.32zM356.352 505.344c18.432 43.008 34.816 90.112 47.104 133.12 19.456-35.84 44.032-70.656 67.584-98.304-37.888-8.192-77.824-20.48-114.688-34.816zM583.68 513.536c-5.12-7.168-17.408-8.192-21.504-8.192-9.216 0-13.312 5.12-27.648 16.384 12.288 1.024 23.552 2.048 31.744 2.048 15.36 0 18.432-2.048 20.48-3.072 1.024-1.024 0-3.072-3.072-7.168z" />
<glyph unicode="&#xe911;" glyph-name="enter" horiz-adv-x="800" d="M788.48 291.328l-335.872 335.872c-15.36 15.36-39.936 15.36-54.272 0-15.36-15.36-15.36-39.936 0-54.272l231.424-231.424h-526.336v567.296c0 28.672-23.552 51.2-51.2 51.2s-52.224-23.552-52.224-51.2v-619.52c0-28.672 23.552-51.2 51.2-51.2h619.52c1.024 0 2.048 0 3.072 0l-263.168-234.496c-16.384-14.336-17.408-38.912-3.072-54.272 7.168-8.192 18.432-13.312 28.672-13.312 9.216 0 18.432 3.072 25.6 10.24l325.632 288.768c8.192 7.168 12.288 17.408 13.312 27.648 0 10.24-4.096 20.48-12.288 28.672z" />
<glyph unicode="&#xe912;" glyph-name="pdf" horiz-adv-x="795" d="M563.2 554.496c-16.384 0-35.84-2.048-59.392-6.144-32.768 33.792-65.536 83.968-90.112 133.12 23.552 99.328 12.288 113.664 6.144 119.808-5.12 7.168-13.312 18.432-22.528 18.432-4.096 0-14.336-2.048-18.432-3.072-10.24-3.072-15.36-11.264-20.48-21.504-12.288-29.696 5.12-78.848 22.528-117.76-12.288-58.368-37.888-130.048-64.512-188.416-66.56-30.72-102.4-60.416-105.472-89.088-1.024-10.24 1.024-25.6 19.456-39.936 5.12-4.096 11.264-6.144 17.408-6.144v0c15.36 0 30.72 12.288 49.152 36.864 13.312 18.432 27.648 44.032 41.984 74.752 47.104 20.48 105.472 38.912 155.648 50.176 27.648-26.624 53.248-39.936 74.752-39.936 15.36 0 29.696 7.168 38.912 21.504 10.24 14.336 12.288 27.648 7.168 37.888-7.168 13.312-24.576 19.456-52.224 19.456zM247.808 383.488c-8.192 6.144-8.192 10.24-7.168 12.288 1.024 10.24 16.384 27.648 54.272 48.128-28.672-52.224-44.032-59.392-47.104-60.416zM392.192 788.992c1.024 0 18.432-19.456 2.048-56.32-25.6 24.576-3.072 55.296-2.048 56.32zM356.352 505.344c18.432 43.008 34.816 90.112 47.104 133.12 19.456-35.84 44.032-70.656 67.584-98.304-37.888-8.192-77.824-20.48-114.688-34.816zM583.68 513.536c-5.12-7.168-17.408-8.192-21.504-8.192-9.216 0-13.312 5.12-27.648 16.384 12.288 1.024 23.552 2.048 31.744 2.048 15.36 0 18.432-2.048 20.48-3.072 1.024-1.024 0-3.072-3.072-7.168zM783.36 744.96l-204.8 204.8c-6.144 7.168-15.36 10.24-23.552 10.24h-512c-21.504 0-44.032-16.384-44.032-51.2v-936.96c0-14.336 15.36-29.696 32.768-33.792 1.024 0 2.048-1.024 3.072-1.024v-1.024h723.968v1.024c1.024 0 2.048 1.024 3.072 1.024 17.408 4.096 32.768 19.456 32.768 33.792v741.376c-1.024 13.312-3.072 23.552-11.264 31.744zM581.632 897.536l148.48-148.48h-148.48v148.48zM279.552 99.84v0c-4.096-8.192-8.192-15.36-16.384-23.552-7.168-8.192-15.36-11.264-24.576-14.336-8.192-3.072-16.384-4.096-30.72-4.096h-7.168v-64.512h-56.32v206.848h65.536c9.216 0 19.456-2.048 26.624-4.096 10.24-5.12 17.408-9.216 23.552-14.336s12.288-12.288 14.336-15.36l1.024-1.024 2.048-7.168c3.072-8.192 5.12-17.408 5.12-28.672 1.024-13.312 0-22.528-3.072-29.696zM481.28 57.856v0c-3.072-10.24-8.192-18.432-12.288-25.6l-3.072-4.096c-5.12-8.192-12.288-15.36-19.456-20.48l-3.072-2.048c-6.144-4.096-11.264-6.144-18.432-8.192-5.12-2.048-11.264-3.072-17.408-4.096-5.12-1.024-11.264-1.024-13.312-1.024h-81.92v205.824h67.584c20.48 0 34.816-2.048 46.080-7.168 16.384-7.168 26.624-13.312 33.792-21.504 9.216-9.216 16.384-21.504 20.48-34.816 4.096-16.384 5.12-26.624 5.12-34.816 1.024-14.336-1.024-27.648-4.096-41.984zM659.456 147.968h-81.92v-26.624h74.752v-49.152h-74.752v-79.872h-57.344v206.848h139.264v-51.2zM757.76 713.216v-441.344h-723.968v636.928c0 4.096 1.024 16.384 8.192 16.384h504.832c-1.024-2.048-1.024-4.096-1.024-7.168v-204.8h204.8c2.048 0 5.12 0 7.168 0 0 1.024 0 1.024 0 0 0 1.024 0 1.024 0 0zM233.472 126.464c0 4.096 0 5.12-1.024 9.216v1.024c0 1.024-1.024 4.096-3.072 7.168-1.024 1.024-4.096 4.096-7.168 5.12-2.048 1.024-5.12 2.048-13.312 2.048h-12.288v-51.2h17.408c1.024 0 4.096 1.024 7.168 2.048 2.048 1.024 4.096 1.024 6.144 4.096 2.048 1.024 3.072 3.072 4.096 5.12 0 1.024 1.024 2.048 1.024 3.072 1.024 4.096 1.024 9.216 1.024 10.24v2.048zM421.888 136.704c-4.096 4.096-10.24 8.192-17.408 12.288-7.168 3.072-18.432 4.096-29.696 4.096h-8.192v-115.712h19.456c17.408 0 28.672 4.096 34.816 14.336v0c7.168 10.24 11.264 25.6 12.288 49.152 0 6.144-1.024 12.288-3.072 18.432-2.048 7.168-4.096 12.288-8.192 17.408z" />
<glyph unicode="&#xe917;" glyph-name="regresar" horiz-adv-x="5417" d="M5416.96 547.84h-4904.96v412.16l-512-512 512-512v412.16h4904.96z" />
<glyph unicode="&#xe918;" glyph-name="scroll-down" horiz-adv-x="683" d="M340.992 960c-187.392 0-340.992-152.576-340.992-340.992v-342.016c0-188.416 153.6-340.992 340.992-340.992s340.992 152.576 340.992 340.992v342.016c1.024 188.416-152.576 340.992-340.992 340.992zM645.12 276.992c0-166.912-136.192-303.104-304.128-303.104s-303.104 136.192-303.104 303.104v342.016c0 166.912 136.192 303.104 303.104 303.104s304.128-136.192 304.128-303.104v-342.016zM340.992 846.336c-10.24 0-19.456-8.192-19.456-19.456v-172.032c0-10.24 8.192-19.456 19.456-19.456s19.456 8.192 19.456 19.456v172.032c0 11.264-8.192 19.456-19.456 19.456z" />
<glyph unicode="&#xe919;" glyph-name="twitter" horiz-adv-x="1261" d="M1260.544 839.168c-46.080-20.48-96.256-34.816-148.48-40.96 53.248 31.744 94.208 82.944 113.664 143.36-50.176-29.696-105.472-51.2-163.84-62.464-47.104 50.176-114.688 81.92-188.416 81.92-143.36-1.024-259.072-116.736-259.072-259.072 0-20.48 2.048-39.936 7.168-59.392-215.040 11.264-405.504 113.664-532.48 270.336-22.528-37.888-34.816-82.944-34.816-130.048 0-90.112 46.080-168.96 114.688-215.040-41.984 1.024-81.92 13.312-116.736 32.768v-3.072c0-124.928 89.088-229.376 207.872-253.952-21.504-6.144-44.032-9.216-68.608-9.216-16.384 0-32.768 2.048-49.152 5.12 31.744-103.424 126.976-178.176 240.64-180.224-89.088-69.632-199.68-110.592-321.536-110.592-20.48 0-40.96 1.024-61.44 3.072 114.688-72.704 249.856-115.712 396.288-115.712 476.16 0 736.256 394.24 736.256 736.256l-1.024 33.792c50.176 35.84 94.208 80.896 129.024 133.12z" />
<glyph unicode="&#xe91a;" glyph-name="ubicacion" horiz-adv-x="706" d="M689.152 705.024c-4.096 13.312-11.264 28.672-16.384 40.96-66.56 157.696-208.896 214.016-324.608 214.016-154.624 0-325.632-103.424-348.16-317.44v-44.032c0-2.048 1.024-18.432 1.024-26.624 12.288-102.4 93.184-209.92 153.6-312.32 64.512-108.544 132.096-216.064 198.656-323.584 40.96 69.632 81.92 141.312 121.856 208.896 11.264 20.48 23.552 39.936 34.816 59.392 7.168 12.288 21.504 25.6 27.648 36.864 64.512 118.784 168.96 237.568 168.96 355.328v48.128c-1.024 13.312-17.408 57.344-17.408 60.416zM351.232 485.888c-45.056 0-95.232 22.528-119.808 86.016-4.096 10.24-3.072 29.696-3.072 31.744v28.672c0 79.872 67.584 116.736 126.976 116.736 72.704 0 129.024-58.368 129.024-131.072 0-73.728-60.416-132.096-133.12-132.096z" />
<glyph unicode="&#xe91b;" glyph-name="arrow-proyectos" horiz-adv-x="1456" d="M980.992-47.616c-20.48-20.48-53.248-20.48-73.728 0s-20.48 53.248 0 73.728l372.736 372.736h-1228.8c-28.672-2.048-51.2 20.48-51.2 49.152s22.528 51.2 51.2 51.2h1228.8l-372.736 372.736c-20.48 20.48-20.48 53.248 0 73.728s53.248 20.48 73.728 0l460.8-460.8c20.48-20.48 20.48-53.248 0-73.728l-460.8-458.752z" />
<glyph unicode="&#xe91c;" glyph-name="video" horiz-adv-x="756" d="M745.472 468.48l-707.584 487.424c-7.168 5.12-16.384 5.12-24.576 1.024s-13.312-12.288-13.312-21.504v-974.848c0-9.216 5.12-17.408 13.312-21.504 3.072-2.048 7.168-3.072 11.264-3.072 5.12 0 9.216 1.024 13.312 4.096l706.56 487.424c7.168 4.096 10.24 12.288 10.24 20.48 1.024 8.192-3.072 15.36-9.216 20.48v0zM49.152 6.656v882.688l638.976-441.344-638.976-441.344z" />
<glyph unicode="&#xe91d;" glyph-name="yt" horiz-adv-x="1434" d="M1432.576 567.808c-1.024 28.672-3.072 65.536-7.168 109.568s-10.24 82.944-17.408 117.76c-8.192 38.912-26.624 71.68-55.296 98.304s-61.44 41.984-99.328 46.080c-118.784 13.312-296.96 20.48-536.576 20.48s-418.816-7.168-536.576-20.48c-37.888-4.096-70.656-19.456-99.328-46.080s-47.104-59.392-55.296-98.304c-8.192-34.816-14.336-73.728-18.432-117.76s-6.144-80.896-7.168-109.568c0-28.672 0-68.608 0-119.808s0-91.136 1.024-119.808c1.024-28.672 3.072-65.536 7.168-109.568s10.24-82.944 17.408-117.76c8.192-38.912 26.624-71.68 55.296-98.304s61.44-41.984 99.328-46.080c118.784-13.312 296.96-20.48 536.576-20.48s418.816 7.168 536.576 20.48c37.888 4.096 70.656 19.456 99.328 46.080s47.104 59.392 55.296 98.304c8.192 34.816 14.336 73.728 18.432 117.76s6.144 80.896 7.168 109.568c0 28.672 0 68.608 0 119.808s0 91.136-1.024 119.808zM1000.448 404.992l-409.6-256c-8.192-5.12-17.408-8.192-27.648-8.192-8.192 0-16.384 2.048-24.576 6.144-17.408 10.24-26.624 24.576-26.624 45.056v512c0 20.48 9.216 34.816 26.624 45.056 18.432 9.216 35.84 9.216 52.224-2.048l409.6-256c16.384-9.216 23.552-23.552 23.552-43.008s-8.192-33.792-23.552-43.008z" />
<glyph unicode="&#xe91e;" glyph-name="corazon" horiz-adv-x="1101" d="M1101.075 655.002c-3.485 165.115-134.88 298.431-298.89 304.979l-0.602 0.019c-106.646-1.68-199.428-59.468-250.294-145.077l-0.751-1.366c-49.691 88.004-142.601 146.449-249.161 146.449-0.663 0-1.325-0.002-1.987-0.007l0.102 0.001c-164.613-6.567-296.008-139.882-299.487-304.665l-0.006-0.333c-0.87-8.782-1.366-18.981-1.366-29.297 0-31.145 4.521-61.233 12.943-89.645l-0.567 2.228c25.333-101.786 79.205-188.544 152.554-253.915l0.495-0.433 386.477-347.94 386.477 347.94c73.844 65.804 127.717 152.562 152.323 250.919l0.726 3.429c7.855 26.184 12.377 56.272 12.377 87.417 0 10.316-0.496 20.515-1.465 30.576l0.1-1.279z" />
</font>
</defs>
</svg>
